# xmcd
#
# Track frame offsets: 
#        150
#        12387
#        24622
#        37666
#        48392
#        60179
#        70979
#        82079
#        94126
#        107724
#        126300
#        139324
#        148495
#        157036
#        170429
#        181654
#        194507
#        205193
#
# Disc length: 2880 seconds
#
# Revision: 1
# Processed by: cddbd v1.5.2PL0 Copyright (c) Steve Scherf et al.
# Submitted via: ExactAudioCopy v1.3
#
DISCID=030b3e12
DTITLE=Various Artist - Country . Cd1
DYEAR=2007
DGENRE=Country
TTITLE0=Lann Anderson -  Stand By Your Man
TTITLE1=Alabama -  Loving You Is Killing Me
TTITLE2=T. Graham Brown  -  Brillint Conversationalist
TTITLE3=Patsy Cline -  Stop, Look And Listen
TTITLE4=Kenny Rogers  -  Elvira
TTITLE5=Tex Ritter - Green Grown The Lilacs
TTITLE6=Don Gibson -  I Can Mend A Broken Heart
TTITLE7=Wayland Jennings -  Don´t Think Twice It´s All Right
TTITLE8=Willie Nelson -  The Last Letter
TTITLE9=Juice Newton -  Angel  Of The Morning
TTITLE10=Dolly Parton -  Little Blossom
TTITLE11=Johnny Paycheck -  Mr Love Maker
TTITLE12=Sandy Posey - Born A Woman
TTITLE13=Jeanne Pruett -  Old Time Religion
TTITLE14=Kenny Rogers -  A Stranger In My Place
TTITLE15=TG Shheppard -  Devil In The Bottle
TTITLE16=Billie Jo Spears -  I´m So Lonesome I Could Cry
TTITLE17=Porter Wagoner -  Misery Loves Company
EXTD=
EXTT0=
EXTT1=
EXTT2=
EXTT3=
EXTT4=
EXTT5=
EXTT6=
EXTT7=
EXTT8=
EXTT9=
EXTT10=
EXTT11=
EXTT12=
EXTT13=
EXTT14=
EXTT15=
EXTT16=
EXTT17=
PLAYORDER=
